<mxfile host="app.diagrams.net" modified="2022-12-13T07:12:32.772Z" agent="5.0 (Macintosh; Intel Mac OS X 10_15_7) AppleWebKit/537.36 (KHTML, like Gecko) Chrome/107.0.0.0 Safari/537.36" etag="DuDKv1hLoIFojp0okb8r" version="20.6.2" type="github">
  <diagram id="C5RBs43oDa-KdzZeNtuy" name="Page-1">
    <mxGraphModel dx="1426" dy="819" grid="1" gridSize="10" guides="1" tooltips="1" connect="1" arrows="1" fold="1" page="1" pageScale="1" pageWidth="827" pageHeight="1169" math="0" shadow="0">
      <root>
        <mxCell id="WIyWlLk6GJQsqaUBKTNV-0" />
        <mxCell id="WIyWlLk6GJQsqaUBKTNV-1" parent="WIyWlLk6GJQsqaUBKTNV-0" />
        <mxCell id="WIyWlLk6GJQsqaUBKTNV-2" value="" style="rounded=0;html=1;jettySize=auto;orthogonalLoop=1;fontSize=11;endArrow=block;endFill=0;endSize=8;strokeWidth=1;shadow=0;labelBackgroundColor=none;edgeStyle=orthogonalEdgeStyle;" parent="WIyWlLk6GJQsqaUBKTNV-1" source="WIyWlLk6GJQsqaUBKTNV-3" target="WIyWlLk6GJQsqaUBKTNV-6" edge="1">
          <mxGeometry relative="1" as="geometry" />
        </mxCell>
        <mxCell id="WIyWlLk6GJQsqaUBKTNV-3" value="用户支付处方" style="rounded=1;whiteSpace=wrap;html=1;fontSize=12;glass=0;strokeWidth=1;shadow=0;" parent="WIyWlLk6GJQsqaUBKTNV-1" vertex="1">
          <mxGeometry x="340" y="100" width="100" height="30" as="geometry" />
        </mxCell>
        <mxCell id="WIyWlLk6GJQsqaUBKTNV-5" value="线下支付" style="edgeStyle=orthogonalEdgeStyle;rounded=0;html=1;jettySize=auto;orthogonalLoop=1;fontSize=11;endArrow=block;endFill=0;endSize=8;strokeWidth=1;shadow=0;labelBackgroundColor=none;" parent="WIyWlLk6GJQsqaUBKTNV-1" source="WIyWlLk6GJQsqaUBKTNV-6" target="WIyWlLk6GJQsqaUBKTNV-7" edge="1">
          <mxGeometry x="0.5652" relative="1" as="geometry">
            <mxPoint as="offset" />
            <Array as="points">
              <mxPoint x="580" y="190" />
            </Array>
          </mxGeometry>
        </mxCell>
        <mxCell id="drgQlP7kcEDc-9zKHMGP-4" value="线上支付" style="edgeStyle=orthogonalEdgeStyle;rounded=0;orthogonalLoop=1;jettySize=auto;html=1;" edge="1" parent="WIyWlLk6GJQsqaUBKTNV-1" source="WIyWlLk6GJQsqaUBKTNV-6" target="drgQlP7kcEDc-9zKHMGP-3">
          <mxGeometry relative="1" as="geometry" />
        </mxCell>
        <mxCell id="WIyWlLk6GJQsqaUBKTNV-6" value="选择支付方式" style="rhombus;whiteSpace=wrap;html=1;shadow=0;fontFamily=Helvetica;fontSize=12;align=center;strokeWidth=1;spacing=6;spacingTop=-4;" parent="WIyWlLk6GJQsqaUBKTNV-1" vertex="1">
          <mxGeometry x="340" y="175" width="100" height="30" as="geometry" />
        </mxCell>
        <mxCell id="drgQlP7kcEDc-9zKHMGP-11" value="" style="edgeStyle=orthogonalEdgeStyle;rounded=0;orthogonalLoop=1;jettySize=auto;html=1;" edge="1" parent="WIyWlLk6GJQsqaUBKTNV-1" source="WIyWlLk6GJQsqaUBKTNV-7" target="drgQlP7kcEDc-9zKHMGP-10">
          <mxGeometry relative="1" as="geometry" />
        </mxCell>
        <mxCell id="WIyWlLk6GJQsqaUBKTNV-7" value="待支付" style="rounded=1;whiteSpace=wrap;html=1;fontSize=12;glass=0;strokeWidth=1;shadow=0;" parent="WIyWlLk6GJQsqaUBKTNV-1" vertex="1">
          <mxGeometry x="550" y="270" width="60" height="30" as="geometry" />
        </mxCell>
        <mxCell id="drgQlP7kcEDc-9zKHMGP-9" value="" style="edgeStyle=orthogonalEdgeStyle;rounded=0;orthogonalLoop=1;jettySize=auto;html=1;" edge="1" parent="WIyWlLk6GJQsqaUBKTNV-1" source="drgQlP7kcEDc-9zKHMGP-3" target="drgQlP7kcEDc-9zKHMGP-8">
          <mxGeometry relative="1" as="geometry">
            <Array as="points">
              <mxPoint x="190" y="435" />
            </Array>
          </mxGeometry>
        </mxCell>
        <mxCell id="drgQlP7kcEDc-9zKHMGP-16" value="支付成功" style="edgeLabel;html=1;align=center;verticalAlign=middle;resizable=0;points=[];" vertex="1" connectable="0" parent="drgQlP7kcEDc-9zKHMGP-9">
          <mxGeometry x="0.1517" y="3" width="70" height="30" relative="1" as="geometry">
            <mxPoint x="-35" y="-15" as="offset" />
          </mxGeometry>
        </mxCell>
        <mxCell id="drgQlP7kcEDc-9zKHMGP-3" value="线上支付" style="whiteSpace=wrap;html=1;shadow=0;strokeWidth=1;spacing=6;spacingTop=-4;" vertex="1" parent="WIyWlLk6GJQsqaUBKTNV-1">
          <mxGeometry x="150" y="290" width="80" height="30" as="geometry" />
        </mxCell>
        <mxCell id="drgQlP7kcEDc-9zKHMGP-15" value="" style="edgeStyle=orthogonalEdgeStyle;rounded=0;orthogonalLoop=1;jettySize=auto;html=1;" edge="1" parent="WIyWlLk6GJQsqaUBKTNV-1" source="drgQlP7kcEDc-9zKHMGP-8" target="drgQlP7kcEDc-9zKHMGP-14">
          <mxGeometry relative="1" as="geometry" />
        </mxCell>
        <mxCell id="drgQlP7kcEDc-9zKHMGP-8" value="待发药" style="whiteSpace=wrap;html=1;shadow=0;strokeWidth=1;spacing=6;spacingTop=-4;" vertex="1" parent="WIyWlLk6GJQsqaUBKTNV-1">
          <mxGeometry x="350" y="420" width="70" height="30" as="geometry" />
        </mxCell>
        <mxCell id="drgQlP7kcEDc-9zKHMGP-19" style="edgeStyle=orthogonalEdgeStyle;rounded=0;orthogonalLoop=1;jettySize=auto;html=1;entryX=1;entryY=0.5;entryDx=0;entryDy=0;" edge="1" parent="WIyWlLk6GJQsqaUBKTNV-1" source="drgQlP7kcEDc-9zKHMGP-10" target="drgQlP7kcEDc-9zKHMGP-8">
          <mxGeometry relative="1" as="geometry">
            <Array as="points">
              <mxPoint x="580" y="435" />
            </Array>
          </mxGeometry>
        </mxCell>
        <mxCell id="drgQlP7kcEDc-9zKHMGP-20" value="确认线下收款" style="edgeLabel;html=1;align=center;verticalAlign=middle;resizable=0;points=[];" vertex="1" connectable="0" parent="drgQlP7kcEDc-9zKHMGP-19">
          <mxGeometry x="-0.0154" width="100" height="30" relative="1" as="geometry">
            <mxPoint x="-50" y="-15" as="offset" />
          </mxGeometry>
        </mxCell>
        <mxCell id="drgQlP7kcEDc-9zKHMGP-10" value="&lt;span style=&quot;color: rgb(23, 43, 77); font-family: -apple-system, &amp;quot;system-ui&amp;quot;, &amp;quot;Segoe UI&amp;quot;, Roboto, Oxygen, Ubuntu, &amp;quot;Fira Sans&amp;quot;, &amp;quot;Droid Sans&amp;quot;, &amp;quot;Helvetica Neue&amp;quot;, sans-serif; font-size: 14px; text-align: left; background-color: rgb(255, 255, 255);&quot;&gt;线下收款&lt;/span&gt;" style="whiteSpace=wrap;html=1;rounded=1;glass=0;strokeWidth=1;shadow=0;" vertex="1" parent="WIyWlLk6GJQsqaUBKTNV-1">
          <mxGeometry x="540" y="340" width="80" height="30" as="geometry" />
        </mxCell>
        <mxCell id="drgQlP7kcEDc-9zKHMGP-26" value="快递" style="edgeStyle=orthogonalEdgeStyle;rounded=0;orthogonalLoop=1;jettySize=auto;html=1;" edge="1" parent="WIyWlLk6GJQsqaUBKTNV-1" source="drgQlP7kcEDc-9zKHMGP-14" target="drgQlP7kcEDc-9zKHMGP-25">
          <mxGeometry relative="1" as="geometry" />
        </mxCell>
        <mxCell id="drgQlP7kcEDc-9zKHMGP-31" value="到店自取" style="edgeStyle=orthogonalEdgeStyle;rounded=0;orthogonalLoop=1;jettySize=auto;html=1;" edge="1" parent="WIyWlLk6GJQsqaUBKTNV-1" source="drgQlP7kcEDc-9zKHMGP-14" target="drgQlP7kcEDc-9zKHMGP-30">
          <mxGeometry relative="1" as="geometry" />
        </mxCell>
        <mxCell id="drgQlP7kcEDc-9zKHMGP-41" value="" style="edgeStyle=orthogonalEdgeStyle;rounded=0;orthogonalLoop=1;jettySize=auto;html=1;" edge="1" parent="WIyWlLk6GJQsqaUBKTNV-1" source="drgQlP7kcEDc-9zKHMGP-14" target="drgQlP7kcEDc-9zKHMGP-40">
          <mxGeometry relative="1" as="geometry" />
        </mxCell>
        <mxCell id="drgQlP7kcEDc-9zKHMGP-42" value="配送到院" style="edgeLabel;html=1;align=center;verticalAlign=middle;resizable=0;points=[];" vertex="1" connectable="0" parent="drgQlP7kcEDc-9zKHMGP-41">
          <mxGeometry x="-0.0947" width="70" height="30" relative="1" as="geometry">
            <mxPoint x="-35" y="-15" as="offset" />
          </mxGeometry>
        </mxCell>
        <mxCell id="drgQlP7kcEDc-9zKHMGP-14" value="配送方式" style="rhombus;whiteSpace=wrap;html=1;shadow=0;strokeWidth=1;spacing=6;spacingTop=-4;" vertex="1" parent="WIyWlLk6GJQsqaUBKTNV-1">
          <mxGeometry x="345" y="510" width="80" height="30" as="geometry" />
        </mxCell>
        <mxCell id="drgQlP7kcEDc-9zKHMGP-36" value="" style="edgeStyle=orthogonalEdgeStyle;rounded=0;orthogonalLoop=1;jettySize=auto;html=1;" edge="1" parent="WIyWlLk6GJQsqaUBKTNV-1" source="drgQlP7kcEDc-9zKHMGP-25" target="drgQlP7kcEDc-9zKHMGP-35">
          <mxGeometry relative="1" as="geometry" />
        </mxCell>
        <mxCell id="drgQlP7kcEDc-9zKHMGP-25" value="发快递" style="whiteSpace=wrap;html=1;shadow=0;strokeWidth=1;spacing=6;spacingTop=-4;" vertex="1" parent="WIyWlLk6GJQsqaUBKTNV-1">
          <mxGeometry x="350" y="698" width="70" height="30" as="geometry" />
        </mxCell>
        <mxCell id="drgQlP7kcEDc-9zKHMGP-33" value="" style="edgeStyle=orthogonalEdgeStyle;rounded=0;orthogonalLoop=1;jettySize=auto;html=1;" edge="1" parent="WIyWlLk6GJQsqaUBKTNV-1" target="drgQlP7kcEDc-9zKHMGP-32">
          <mxGeometry relative="1" as="geometry">
            <mxPoint x="190" y="678" as="sourcePoint" />
            <Array as="points">
              <mxPoint x="190" y="980" />
            </Array>
          </mxGeometry>
        </mxCell>
        <mxCell id="drgQlP7kcEDc-9zKHMGP-30" value="用户取药" style="whiteSpace=wrap;html=1;shadow=0;strokeWidth=1;spacing=6;spacingTop=-4;" vertex="1" parent="WIyWlLk6GJQsqaUBKTNV-1">
          <mxGeometry x="150" y="698" width="80" height="30" as="geometry" />
        </mxCell>
        <mxCell id="drgQlP7kcEDc-9zKHMGP-32" value="结束" style="rounded=1;whiteSpace=wrap;html=1;shadow=0;strokeWidth=1;spacing=6;spacingTop=-4;" vertex="1" parent="WIyWlLk6GJQsqaUBKTNV-1">
          <mxGeometry x="355" y="965" width="60" height="30" as="geometry" />
        </mxCell>
        <mxCell id="drgQlP7kcEDc-9zKHMGP-39" value="" style="edgeStyle=orthogonalEdgeStyle;rounded=0;orthogonalLoop=1;jettySize=auto;html=1;entryX=0.5;entryY=0;entryDx=0;entryDy=0;" edge="1" parent="WIyWlLk6GJQsqaUBKTNV-1" target="drgQlP7kcEDc-9zKHMGP-32">
          <mxGeometry relative="1" as="geometry">
            <mxPoint x="385" y="843" as="sourcePoint" />
            <mxPoint x="385" y="920" as="targetPoint" />
            <Array as="points">
              <mxPoint x="385" y="965" />
            </Array>
          </mxGeometry>
        </mxCell>
        <mxCell id="drgQlP7kcEDc-9zKHMGP-35" value="签收(药商签收或用户签收)" style="whiteSpace=wrap;html=1;shadow=0;strokeWidth=1;spacing=6;spacingTop=-4;" vertex="1" parent="WIyWlLk6GJQsqaUBKTNV-1">
          <mxGeometry x="300" y="863" width="170" height="30" as="geometry" />
        </mxCell>
        <mxCell id="drgQlP7kcEDc-9zKHMGP-45" value="" style="edgeStyle=orthogonalEdgeStyle;rounded=0;orthogonalLoop=1;jettySize=auto;html=1;" edge="1" parent="WIyWlLk6GJQsqaUBKTNV-1" source="drgQlP7kcEDc-9zKHMGP-40" target="drgQlP7kcEDc-9zKHMGP-44">
          <mxGeometry relative="1" as="geometry" />
        </mxCell>
        <mxCell id="drgQlP7kcEDc-9zKHMGP-40" value="发货到院" style="whiteSpace=wrap;html=1;shadow=0;strokeWidth=1;spacing=6;spacingTop=-4;" vertex="1" parent="WIyWlLk6GJQsqaUBKTNV-1">
          <mxGeometry x="550" y="615" width="80" height="30" as="geometry" />
        </mxCell>
        <mxCell id="drgQlP7kcEDc-9zKHMGP-49" value="" style="edgeStyle=orthogonalEdgeStyle;rounded=0;orthogonalLoop=1;jettySize=auto;html=1;" edge="1" parent="WIyWlLk6GJQsqaUBKTNV-1" source="drgQlP7kcEDc-9zKHMGP-44" target="drgQlP7kcEDc-9zKHMGP-48">
          <mxGeometry relative="1" as="geometry" />
        </mxCell>
        <mxCell id="drgQlP7kcEDc-9zKHMGP-44" value="院内签收" style="whiteSpace=wrap;html=1;shadow=0;strokeWidth=1;spacing=6;spacingTop=-4;" vertex="1" parent="WIyWlLk6GJQsqaUBKTNV-1">
          <mxGeometry x="550" y="698" width="80" height="30" as="geometry" />
        </mxCell>
        <mxCell id="drgQlP7kcEDc-9zKHMGP-51" value="" style="edgeStyle=orthogonalEdgeStyle;rounded=0;orthogonalLoop=1;jettySize=auto;html=1;" edge="1" parent="WIyWlLk6GJQsqaUBKTNV-1" source="drgQlP7kcEDc-9zKHMGP-48" target="drgQlP7kcEDc-9zKHMGP-50">
          <mxGeometry relative="1" as="geometry" />
        </mxCell>
        <mxCell id="drgQlP7kcEDc-9zKHMGP-48" value="院内发药" style="whiteSpace=wrap;html=1;shadow=0;strokeWidth=1;spacing=6;spacingTop=-4;" vertex="1" parent="WIyWlLk6GJQsqaUBKTNV-1">
          <mxGeometry x="550" y="780" width="80" height="30" as="geometry" />
        </mxCell>
        <mxCell id="drgQlP7kcEDc-9zKHMGP-56" value="" style="edgeStyle=orthogonalEdgeStyle;rounded=0;orthogonalLoop=1;jettySize=auto;html=1;entryX=1;entryY=0.5;entryDx=0;entryDy=0;" edge="1" parent="WIyWlLk6GJQsqaUBKTNV-1" target="drgQlP7kcEDc-9zKHMGP-32">
          <mxGeometry relative="1" as="geometry">
            <mxPoint x="590" y="840" as="sourcePoint" />
            <mxPoint x="420" y="980" as="targetPoint" />
            <Array as="points">
              <mxPoint x="590" y="980" />
            </Array>
          </mxGeometry>
        </mxCell>
        <mxCell id="drgQlP7kcEDc-9zKHMGP-57" value="否" style="edgeLabel;html=1;align=center;verticalAlign=middle;resizable=0;points=[];" vertex="1" connectable="0" parent="drgQlP7kcEDc-9zKHMGP-56">
          <mxGeometry width="40" height="30" relative="1" as="geometry">
            <mxPoint x="-20" y="-15" as="offset" />
          </mxGeometry>
        </mxCell>
        <mxCell id="drgQlP7kcEDc-9zKHMGP-59" value="" style="edgeStyle=orthogonalEdgeStyle;rounded=0;orthogonalLoop=1;jettySize=auto;html=1;entryX=0.992;entryY=0.415;entryDx=0;entryDy=0;entryPerimeter=0;" edge="1" parent="WIyWlLk6GJQsqaUBKTNV-1" source="drgQlP7kcEDc-9zKHMGP-50" target="drgQlP7kcEDc-9zKHMGP-35">
          <mxGeometry relative="1" as="geometry">
            <mxPoint x="480" y="960" as="targetPoint" />
          </mxGeometry>
        </mxCell>
        <mxCell id="drgQlP7kcEDc-9zKHMGP-60" value="是" style="edgeLabel;html=1;align=center;verticalAlign=middle;resizable=0;points=[];" vertex="1" connectable="0" parent="drgQlP7kcEDc-9zKHMGP-59">
          <mxGeometry x="-0.4389" y="-4" width="40" height="30" relative="1" as="geometry">
            <mxPoint x="-20" y="-15" as="offset" />
          </mxGeometry>
        </mxCell>
        <mxCell id="drgQlP7kcEDc-9zKHMGP-50" value="是否配置签收环节&lt;br&gt;" style="rhombus;whiteSpace=wrap;html=1;shadow=0;strokeWidth=1;spacing=6;spacingTop=-4;" vertex="1" parent="WIyWlLk6GJQsqaUBKTNV-1">
          <mxGeometry x="525" y="860" width="130" height="30" as="geometry" />
        </mxCell>
      </root>
    </mxGraphModel>
  </diagram>
</mxfile>
